<svg width="23" height="25" viewBox="0 0 23 25" fill="none" xmlns="http://www.w3.org/2000/svg">
<path d="M8.91551 2.14733C8.91551 0.961397 9.87689 0 11.0628 0C12.2488 0 13.2102 0.961397 13.2102 2.14733V2.93559H16.7709V5.81682C16.7709 6.79259 15.9799 7.58362 15.0041 7.58362H7.12153C6.14576 7.58362 5.35474 6.79259 5.35474 5.81682V2.93559H8.91551V2.14733Z" fill="#888888"/>
<path fill-rule="evenodd" clip-rule="evenodd" d="M3.66949 2.93559H2.88123C1.28998 2.93559 0 4.22557 0 5.81682V21.4733C0 23.0646 1.28998 24.3546 2.88123 24.3546H19.2444C20.8357 24.3546 22.1257 23.0646 22.1257 21.4733V5.81682C22.1257 4.22557 20.8357 2.93559 19.2444 2.93559H18.4562V5.81682C18.4562 7.72333 16.9107 9.26886 15.0041 9.26886H7.12153C5.21501 9.26886 3.66949 7.72333 3.66949 5.81682V2.93559ZM4.51219 13.1557C4.51219 12.5853 4.97463 12.1228 5.54508 12.1228H16.5807C17.1512 12.1228 17.6136 12.5853 17.6136 13.1557C17.6136 13.7262 17.1512 14.1886 16.5807 14.1886H5.54508C4.97463 14.1886 4.51219 13.7262 4.51219 13.1557ZM4.51215 16.9068C4.51215 16.3364 4.9746 15.8739 5.54505 15.8739H16.5807C17.1512 15.8739 17.6136 16.3364 17.6136 16.9068C17.6136 17.4773 17.1512 17.9397 16.5807 17.9397H5.54505C4.9746 17.9397 4.51215 17.4773 4.51215 16.9068ZM4.51215 20.6579C4.51215 20.0874 4.9746 19.625 5.54505 19.625H16.5807C17.1512 19.625 17.6136 20.0874 17.6136 20.6579C17.6136 21.2283 17.1512 21.6908 16.5807 21.6908H5.54505C4.9746 21.6908 4.51215 21.2283 4.51215 20.6579Z" fill="#888888"/>
</svg>
