<svg width="24" height="24" viewBox="0 0 24 24" fill="none" xmlns="http://www.w3.org/2000/svg">
<path d="M12.2338 6.02936C12.9693 6.02936 13.6729 6.16799 14.3206 6.42091L15.8378 3.7555C15.7074 3.69535 15.5753 3.63828 15.4416 3.58441C15.4114 3.57224 15.3812 3.56026 15.3509 3.54842L15.3005 3.52888C15.2695 3.51697 15.2383 3.50526 15.2072 3.49375L14.8955 0.490715C14.8666 0.211769 14.6346 0 14.3581 0H9.93437C9.65782 0 9.42588 0.211769 9.39692 0.490715L9.08522 3.49375C8.91917 3.55524 8.75537 3.62155 8.59408 3.69261L10.1471 6.42091C10.7947 6.16799 11.4984 6.02936 12.2338 6.02936Z" fill="#888888"/>
<path d="M6.3526 5.1135C6.54457 4.94723 6.74359 4.78905 6.94909 4.63951L8.51663 7.39331C7.44708 8.29746 6.70282 9.58406 6.4881 11.046H3.26981C3.2747 10.999 3.27991 10.9522 3.28545 10.9055L3.29422 10.8341L3.2991 10.7962L3.30517 10.7506C3.31824 10.6547 3.33281 10.5592 3.34878 10.4642L1.12366 8.82404C0.899955 8.6591 0.835108 8.34951 0.973379 8.10656L3.18518 4.22086C3.32351 3.97791 3.62031 3.88009 3.87297 3.9941L6.3526 5.1135Z" fill="#888888"/>
<path d="M17.9796 11.046C17.7648 9.58406 17.0206 8.29746 15.9511 7.39331L17.4667 4.73078C17.544 4.78905 17.6203 4.8486 17.6956 4.90936L17.722 4.93063L17.7652 4.96603C17.7974 4.99253 17.8294 5.01922 17.8612 5.04612L17.8951 5.07496L17.9222 5.09818L20.627 3.87721C20.8797 3.7632 21.1765 3.86102 21.3148 4.10397L23.5266 7.98967C23.6649 8.23262 23.6 8.54221 23.3763 8.70714L20.949 10.4964C20.9789 10.6778 21.0035 10.861 21.0226 11.046H17.9796Z" fill="#888888"/>
<path d="M17.9526 12.9644C17.7023 14.3861 16.9493 15.6312 15.8867 16.5038L17.4626 19.2723C17.5181 19.2305 17.5731 19.188 17.6276 19.1449C17.6625 19.1174 17.6971 19.0896 17.7315 19.0616C17.7586 19.0395 17.7856 19.0172 17.8125 18.9948L20.778 20.3333C21.0306 20.4473 21.3274 20.3495 21.4657 20.1065L23.6776 16.2208C23.8158 15.9779 23.751 15.6683 23.5273 15.5034L20.934 13.5918C20.9702 13.385 20.9994 13.1758 21.0215 12.9644H17.9526Z" fill="#888888"/>
<path d="M10.2252 17.4523C10.8512 17.6862 11.5278 17.814 12.2338 17.814C12.9399 17.814 13.6165 17.6862 14.2424 17.4523L15.8331 20.2466C15.7247 20.2966 15.6152 20.3443 15.5046 20.39C15.4063 20.4304 15.3072 20.4692 15.2072 20.5062L14.8955 23.5092C14.8666 23.7882 14.6346 24 14.3581 24H9.93437C9.65782 24 9.42588 23.7882 9.39692 23.5092L9.08522 20.5062C8.92076 20.4454 8.75861 20.3797 8.59883 20.3095L10.2252 17.4523Z" fill="#888888"/>
<path d="M8.58108 16.5038C7.51846 15.6312 6.76536 14.3862 6.51508 12.9644H3.27094C3.29416 13.1867 3.32536 13.4065 3.36408 13.6237L0.972785 15.3865C0.749019 15.5514 0.684172 15.861 0.822442 16.1039L3.03431 19.9896C3.17258 20.2326 3.46937 20.3304 3.72203 20.2164L6.46191 18.9796C6.62116 19.1132 6.78502 19.2413 6.95324 19.3635L8.58108 16.5038Z" fill="#888888"/>
<path d="M12.2338 15.3475C14.0992 15.3475 15.6114 13.8137 15.6114 11.9217C15.6114 10.0297 14.0992 8.49591 12.2338 8.49591C10.3684 8.49591 8.85624 10.0297 8.85624 11.9217C8.85624 13.8137 10.3684 15.3475 12.2338 15.3475Z" fill="#888888"/>
</svg>
