<svg width="22" height="22" viewBox="0 0 22 22" fill="none" xmlns="http://www.w3.org/2000/svg">
<path d="M9.9 0H6.22258L0 5.13865V9.9H2.75V6.70588L7.54034 2.75H9.9V0Z" fill="#888888"/>
<path d="M0 16.8614V12.1H2.75V15.2941L7.54034 19.25H9.9V22H6.22258L0 16.8614Z" fill="#888888"/>
<path d="M12.1 22V19.25H14.4597L19.25 15.2941V12.1H22V16.8614L15.7774 22H12.1Z" fill="#888888"/>
<path d="M22 5.13865V9.9H19.25V6.70588L14.4597 2.75H12.1V0H15.7774L22 5.13865Z" fill="#888888"/>
<path fill-rule="evenodd" clip-rule="evenodd" d="M4.4 7.48319V14.5168L8.13355 17.6H13.8665L17.6 14.5168V7.48319L13.8665 4.4H8.13355L4.4 7.48319ZM14.3 11C14.3 12.8225 12.8225 14.3 11 14.3C9.17745 14.3 7.7 12.8225 7.7 11C7.7 9.17746 9.17745 7.7 11 7.7C12.8225 7.7 14.3 9.17746 14.3 11Z" fill="#888888"/>
</svg>
