<svg width="22" height="23" viewBox="0 0 22 23" fill="none" xmlns="http://www.w3.org/2000/svg">
<path d="M6.02703 0C5.68374 0 5.40541 0.278334 5.40541 0.621622V3.41892H2.98649C1.61318 3.41892 0.5 4.53218 0.5 5.90541V8.39189H21.5V5.90541C21.5 4.53218 20.3868 3.41892 19.0135 3.41892H16.2838V0.621622C16.2838 0.278334 16.0055 0 15.6622 0H13.7973C13.454 0 13.1757 0.278334 13.1757 0.621622V3.41892H8.51351V0.621622C8.51351 0.278334 8.23518 0 7.89189 0H6.02703Z" fill="#888888"/>
<path fill-rule="evenodd" clip-rule="evenodd" d="M21.5 10.5676H0.5V20.5135C0.5 21.8867 1.61318 23 2.98649 23H19.0135C20.3868 23 21.5 21.8867 21.5 20.5135V10.5676ZM3.22973 13.3281C3.22973 13.0112 3.48712 12.7542 3.80446 12.7542H5.81592C6.13326 12.7542 6.39065 13.0112 6.39065 13.3281V15.337C6.39065 15.654 6.13326 15.9109 5.81592 15.9109H3.80446C3.48712 15.9109 3.22973 15.654 3.22973 15.337V13.3281ZM9.26413 13.3281C9.26413 13.0112 9.52152 12.7542 9.83886 12.7542H11.8503C12.1677 12.7542 12.4251 13.0112 12.4251 13.3281V15.337C12.4251 15.654 12.1677 15.9109 11.8503 15.9109H9.83886C9.52152 15.9109 9.26413 15.654 9.26413 15.337V13.3281ZM15.2985 13.3281C15.2985 13.0112 15.5559 12.7542 15.8733 12.7542H17.8847C18.2021 12.7542 18.4595 13.0112 18.4595 13.3281V15.337C18.4595 15.654 18.2021 15.9109 17.8847 15.9109H15.8733C15.5559 15.9109 15.2985 15.654 15.2985 15.337V13.3281ZM3.22973 17.9198C3.22973 17.6028 3.48712 17.3458 3.80446 17.3458H5.81592C6.13326 17.3458 6.39065 17.6028 6.39065 17.9198V19.9287C6.39065 20.2457 6.13326 20.5027 5.81592 20.5027H3.80446C3.48712 20.5027 3.22973 20.2457 3.22973 19.9287V17.9198ZM9.26413 17.9198C9.26413 17.6028 9.52152 17.3458 9.83886 17.3458H11.8503C12.1677 17.3458 12.4251 17.6028 12.4251 17.9198V19.9287C12.4251 20.2457 12.1677 20.5027 11.8503 20.5027H9.83886C9.52152 20.5027 9.26413 20.2457 9.26413 19.9287V17.9198ZM15.2985 17.9198C15.2985 17.6028 15.5559 17.3458 15.8733 17.3458H17.8847C18.2021 17.3458 18.4595 17.6028 18.4595 17.9198V19.9287C18.4595 20.2457 18.2021 20.5027 17.8847 20.5027H15.8733C15.5559 20.5027 15.2985 20.2457 15.2985 19.9287V17.9198Z" fill="#888888"/>
</svg>
